<svg width="342" height="326" viewBox="0 0 342 326" fill="none" xmlns="http://www.w3.org/2000/svg">
<rect x="1" y="1" width="340" height="324" fill="white" stroke="black" stroke-width="2"/>
<rect x="44.5" y="33.5" width="254" height="48" rx="2.5" fill="white" stroke="black"/>
<line x1="58" y1="56.5" x2="88" y2="56.5" stroke="black"/>
<line x1="98" y1="56.5" x2="128" y2="56.5" stroke="black"/>
<line x1="254" y1="56.5" x2="284" y2="56.5" stroke="black"/>
<line x1="148" y1="56.5" x2="238" y2="56.5" stroke="black"/>
<rect x="51.5" y="128.5" width="45" height="69" rx="2.5" fill="white" stroke="black"/>
<line x1="54" y1="135.5" x2="61" y2="135.5" stroke="black"/>
<line x1="63" y1="135.5" x2="70" y2="135.5" stroke="black"/>
<line x1="78" y1="139.5" x2="85" y2="139.5" stroke="black"/>
<line x1="87" y1="139.5" x2="94" y2="139.5" stroke="black"/>
<line x1="81" y1="143.5" x2="88" y2="143.5" stroke="black"/>
<line x1="81" y1="143.5" x2="88" y2="143.5" stroke="black"/>
<line x1="93" y1="143.5" x2="94" y2="143.5" stroke="black"/>
<line x1="93" y1="163.5" x2="94" y2="163.5" stroke="black"/>
<line x1="93" y1="179.5" x2="94" y2="179.5" stroke="black"/>
<line x1="72" y1="143.5" x2="79" y2="143.5" stroke="black"/>
<line x1="63" y1="143.5" x2="70" y2="143.5" stroke="black"/>
<line x1="54" y1="151.5" x2="61" y2="151.5" stroke="black"/>
<line x1="54" y1="143.5" x2="61" y2="143.5" stroke="black"/>
<line x1="72" y1="135.5" x2="94" y2="135.5" stroke="black"/>
<line x1="54" y1="139.5" x2="76" y2="139.5" stroke="black"/>
<line x1="54" y1="159.5" x2="76" y2="159.5" stroke="black"/>
<line x1="54" y1="147.5" x2="94" y2="147.5" stroke="black"/>
<line x1="78" y1="175.5" x2="85" y2="175.5" stroke="black"/>
<line x1="87" y1="175.5" x2="94" y2="175.5" stroke="black"/>
<line x1="81" y1="179.5" x2="88" y2="179.5" stroke="black"/>
<line x1="72" y1="179.5" x2="79" y2="179.5" stroke="black"/>
<line x1="63" y1="179.5" x2="70" y2="179.5" stroke="black"/>
<line x1="54" y1="179.5" x2="61" y2="179.5" stroke="black"/>
<line x1="54" y1="175.5" x2="76" y2="175.5" stroke="black"/>
<line x1="54" y1="183.5" x2="94" y2="183.5" stroke="black"/>
<line x1="54" y1="191.5" x2="94" y2="191.5" stroke="black"/>
<line x1="64" y1="151.5" x2="94" y2="151.5" stroke="black"/>
<line x1="54" y1="155.5" x2="61" y2="155.5" stroke="black"/>
<line x1="63" y1="155.5" x2="70" y2="155.5" stroke="black"/>
<line x1="78" y1="159.5" x2="85" y2="159.5" stroke="black"/>
<line x1="87" y1="159.5" x2="94" y2="159.5" stroke="black"/>
<line x1="81" y1="163.5" x2="88" y2="163.5" stroke="black"/>
<line x1="72" y1="163.5" x2="79" y2="163.5" stroke="black"/>
<line x1="63" y1="163.5" x2="70" y2="163.5" stroke="black"/>
<line x1="54" y1="171.5" x2="61" y2="171.5" stroke="black"/>
<line x1="54" y1="163.5" x2="61" y2="163.5" stroke="black"/>
<line x1="72" y1="155.5" x2="94" y2="155.5" stroke="black"/>
<line x1="54" y1="167.5" x2="94" y2="167.5" stroke="black"/>
<line x1="64" y1="171.5" x2="94" y2="171.5" stroke="black"/>
<line x1="54" y1="171.5" x2="61" y2="171.5" stroke="black"/>
<line x1="54" y1="187.5" x2="61" y2="187.5" stroke="black"/>
<line x1="64" y1="187.5" x2="94" y2="187.5" stroke="black"/>
<rect x="51.5" y="227.5" width="45" height="69" rx="2.5" fill="white" stroke="black"/>
<line x1="54" y1="234.5" x2="61" y2="234.5" stroke="black"/>
<line x1="63" y1="234.5" x2="70" y2="234.5" stroke="black"/>
<line x1="78" y1="238.5" x2="85" y2="238.5" stroke="black"/>
<line x1="87" y1="238.5" x2="94" y2="238.5" stroke="black"/>
<line x1="81" y1="242.5" x2="88" y2="242.5" stroke="black"/>
<line x1="81" y1="242.5" x2="88" y2="242.5" stroke="black"/>
<line x1="93" y1="242.5" x2="94" y2="242.5" stroke="black"/>
<line x1="93" y1="262.5" x2="94" y2="262.5" stroke="black"/>
<line x1="93" y1="278.5" x2="94" y2="278.5" stroke="black"/>
<line x1="72" y1="242.5" x2="79" y2="242.5" stroke="black"/>
<line x1="63" y1="242.5" x2="70" y2="242.5" stroke="black"/>
<line x1="54" y1="250.5" x2="61" y2="250.5" stroke="black"/>
<line x1="54" y1="242.5" x2="61" y2="242.5" stroke="black"/>
<line x1="72" y1="234.5" x2="94" y2="234.5" stroke="black"/>
<line x1="54" y1="238.5" x2="76" y2="238.5" stroke="black"/>
<line x1="54" y1="258.5" x2="76" y2="258.5" stroke="black"/>
<line x1="54" y1="246.5" x2="94" y2="246.5" stroke="black"/>
<line x1="78" y1="274.5" x2="85" y2="274.5" stroke="black"/>
<line x1="87" y1="274.5" x2="94" y2="274.5" stroke="black"/>
<line x1="81" y1="278.5" x2="88" y2="278.5" stroke="black"/>
<line x1="72" y1="278.5" x2="79" y2="278.5" stroke="black"/>
<line x1="63" y1="278.5" x2="70" y2="278.5" stroke="black"/>
<line x1="54" y1="278.5" x2="61" y2="278.5" stroke="black"/>
<line x1="54" y1="274.5" x2="76" y2="274.5" stroke="black"/>
<line x1="54" y1="282.5" x2="94" y2="282.5" stroke="black"/>
<line x1="54" y1="290.5" x2="94" y2="290.5" stroke="black"/>
<line x1="64" y1="250.5" x2="94" y2="250.5" stroke="black"/>
<line x1="54" y1="254.5" x2="61" y2="254.5" stroke="black"/>
<line x1="63" y1="254.5" x2="70" y2="254.5" stroke="black"/>
<line x1="78" y1="258.5" x2="85" y2="258.5" stroke="black"/>
<line x1="87" y1="258.5" x2="94" y2="258.5" stroke="black"/>
<line x1="81" y1="262.5" x2="88" y2="262.5" stroke="black"/>
<line x1="72" y1="262.5" x2="79" y2="262.5" stroke="black"/>
<line x1="63" y1="262.5" x2="70" y2="262.5" stroke="black"/>
<line x1="54" y1="270.5" x2="61" y2="270.5" stroke="black"/>
<line x1="54" y1="262.5" x2="61" y2="262.5" stroke="black"/>
<line x1="72" y1="254.5" x2="94" y2="254.5" stroke="black"/>
<line x1="54" y1="266.5" x2="94" y2="266.5" stroke="black"/>
<line x1="64" y1="270.5" x2="94" y2="270.5" stroke="black"/>
<line x1="54" y1="270.5" x2="61" y2="270.5" stroke="black"/>
<line x1="54" y1="286.5" x2="61" y2="286.5" stroke="black"/>
<line x1="64" y1="286.5" x2="94" y2="286.5" stroke="black"/>
<rect x="148.5" y="129.5" width="45" height="69" rx="2.5" fill="white" stroke="black"/>
<line x1="151" y1="136.5" x2="158" y2="136.5" stroke="black"/>
<line x1="160" y1="136.5" x2="167" y2="136.5" stroke="black"/>
<line x1="175" y1="140.5" x2="182" y2="140.5" stroke="black"/>
<line x1="184" y1="140.5" x2="191" y2="140.5" stroke="black"/>
<line x1="178" y1="144.5" x2="185" y2="144.5" stroke="black"/>
<line x1="178" y1="144.5" x2="185" y2="144.5" stroke="black"/>
<line x1="190" y1="144.5" x2="191" y2="144.5" stroke="black"/>
<line x1="190" y1="164.5" x2="191" y2="164.5" stroke="black"/>
<line x1="190" y1="180.5" x2="191" y2="180.5" stroke="black"/>
<line x1="169" y1="144.5" x2="176" y2="144.5" stroke="black"/>
<line x1="160" y1="144.5" x2="167" y2="144.5" stroke="black"/>
<line x1="151" y1="152.5" x2="158" y2="152.5" stroke="black"/>
<line x1="151" y1="144.5" x2="158" y2="144.5" stroke="black"/>
<line x1="169" y1="136.5" x2="191" y2="136.5" stroke="black"/>
<line x1="151" y1="140.5" x2="173" y2="140.5" stroke="black"/>
<line x1="151" y1="160.5" x2="173" y2="160.5" stroke="black"/>
<line x1="151" y1="148.5" x2="191" y2="148.5" stroke="black"/>
<line x1="175" y1="176.5" x2="182" y2="176.5" stroke="black"/>
<line x1="184" y1="176.5" x2="191" y2="176.5" stroke="black"/>
<line x1="178" y1="180.5" x2="185" y2="180.5" stroke="black"/>
<line x1="169" y1="180.5" x2="176" y2="180.5" stroke="black"/>
<line x1="160" y1="180.5" x2="167" y2="180.5" stroke="black"/>
<line x1="151" y1="180.5" x2="158" y2="180.5" stroke="black"/>
<line x1="151" y1="176.5" x2="173" y2="176.5" stroke="black"/>
<line x1="151" y1="184.5" x2="191" y2="184.5" stroke="black"/>
<line x1="151" y1="192.5" x2="191" y2="192.5" stroke="black"/>
<line x1="161" y1="152.5" x2="191" y2="152.5" stroke="black"/>
<line x1="151" y1="156.5" x2="158" y2="156.5" stroke="black"/>
<line x1="160" y1="156.5" x2="167" y2="156.5" stroke="black"/>
<line x1="175" y1="160.5" x2="182" y2="160.5" stroke="black"/>
<line x1="184" y1="160.5" x2="191" y2="160.5" stroke="black"/>
<line x1="178" y1="164.5" x2="185" y2="164.5" stroke="black"/>
<line x1="169" y1="164.5" x2="176" y2="164.5" stroke="black"/>
<line x1="160" y1="164.5" x2="167" y2="164.5" stroke="black"/>
<line x1="151" y1="172.5" x2="158" y2="172.5" stroke="black"/>
<line x1="151" y1="164.5" x2="158" y2="164.5" stroke="black"/>
<line x1="169" y1="156.5" x2="191" y2="156.5" stroke="black"/>
<line x1="151" y1="168.5" x2="191" y2="168.5" stroke="black"/>
<line x1="161" y1="172.5" x2="191" y2="172.5" stroke="black"/>
<line x1="151" y1="172.5" x2="158" y2="172.5" stroke="black"/>
<line x1="151" y1="188.5" x2="158" y2="188.5" stroke="black"/>
<line x1="161" y1="188.5" x2="191" y2="188.5" stroke="black"/>
<rect x="148.5" y="227.5" width="45" height="69" rx="2.5" fill="white" stroke="black"/>
<line x1="151" y1="234.5" x2="158" y2="234.5" stroke="black"/>
<line x1="160" y1="234.5" x2="167" y2="234.5" stroke="black"/>
<line x1="175" y1="238.5" x2="182" y2="238.5" stroke="black"/>
<line x1="184" y1="238.5" x2="191" y2="238.5" stroke="black"/>
<line x1="178" y1="242.5" x2="185" y2="242.5" stroke="black"/>
<line x1="178" y1="242.5" x2="185" y2="242.5" stroke="black"/>
<line x1="190" y1="242.5" x2="191" y2="242.5" stroke="black"/>
<line x1="190" y1="262.5" x2="191" y2="262.5" stroke="black"/>
<line x1="190" y1="278.5" x2="191" y2="278.5" stroke="black"/>
<line x1="169" y1="242.5" x2="176" y2="242.5" stroke="black"/>
<line x1="160" y1="242.5" x2="167" y2="242.5" stroke="black"/>
<line x1="151" y1="250.5" x2="158" y2="250.5" stroke="black"/>
<line x1="151" y1="242.5" x2="158" y2="242.5" stroke="black"/>
<line x1="169" y1="234.5" x2="191" y2="234.5" stroke="black"/>
<line x1="151" y1="238.5" x2="173" y2="238.5" stroke="black"/>
<line x1="151" y1="258.5" x2="173" y2="258.5" stroke="black"/>
<line x1="151" y1="246.5" x2="191" y2="246.5" stroke="black"/>
<line x1="175" y1="274.5" x2="182" y2="274.5" stroke="black"/>
<line x1="184" y1="274.5" x2="191" y2="274.5" stroke="black"/>
<line x1="178" y1="278.5" x2="185" y2="278.5" stroke="black"/>
<line x1="169" y1="278.5" x2="176" y2="278.5" stroke="black"/>
<line x1="160" y1="278.5" x2="167" y2="278.5" stroke="black"/>
<line x1="151" y1="278.5" x2="158" y2="278.5" stroke="black"/>
<line x1="151" y1="274.5" x2="173" y2="274.5" stroke="black"/>
<line x1="151" y1="282.5" x2="191" y2="282.5" stroke="black"/>
<line x1="151" y1="290.5" x2="191" y2="290.5" stroke="black"/>
<line x1="161" y1="250.5" x2="191" y2="250.5" stroke="black"/>
<line x1="151" y1="254.5" x2="158" y2="254.5" stroke="black"/>
<line x1="160" y1="254.5" x2="167" y2="254.5" stroke="black"/>
<line x1="175" y1="258.5" x2="182" y2="258.5" stroke="black"/>
<line x1="184" y1="258.5" x2="191" y2="258.5" stroke="black"/>
<line x1="178" y1="262.5" x2="185" y2="262.5" stroke="black"/>
<line x1="169" y1="262.5" x2="176" y2="262.5" stroke="black"/>
<line x1="160" y1="262.5" x2="167" y2="262.5" stroke="black"/>
<line x1="151" y1="270.5" x2="158" y2="270.5" stroke="black"/>
<line x1="151" y1="262.5" x2="158" y2="262.5" stroke="black"/>
<line x1="169" y1="254.5" x2="191" y2="254.5" stroke="black"/>
<line x1="151" y1="266.5" x2="191" y2="266.5" stroke="black"/>
<line x1="161" y1="270.5" x2="191" y2="270.5" stroke="black"/>
<line x1="151" y1="270.5" x2="158" y2="270.5" stroke="black"/>
<line x1="151" y1="286.5" x2="158" y2="286.5" stroke="black"/>
<line x1="161" y1="286.5" x2="191" y2="286.5" stroke="black"/>
<rect x="245.5" y="127.5" width="45" height="69" rx="2.5" fill="white" stroke="black"/>
<line x1="248" y1="134.5" x2="255" y2="134.5" stroke="black"/>
<line x1="257" y1="134.5" x2="264" y2="134.5" stroke="black"/>
<line x1="272" y1="138.5" x2="279" y2="138.5" stroke="black"/>
<line x1="281" y1="138.5" x2="288" y2="138.5" stroke="black"/>
<line x1="275" y1="142.5" x2="282" y2="142.5" stroke="black"/>
<line x1="275" y1="142.5" x2="282" y2="142.5" stroke="black"/>
<line x1="287" y1="142.5" x2="288" y2="142.5" stroke="black"/>
<line x1="287" y1="162.5" x2="288" y2="162.5" stroke="black"/>
<line x1="287" y1="178.5" x2="288" y2="178.5" stroke="black"/>
<line x1="266" y1="142.5" x2="273" y2="142.5" stroke="black"/>
<line x1="257" y1="142.5" x2="264" y2="142.5" stroke="black"/>
<line x1="248" y1="150.5" x2="255" y2="150.5" stroke="black"/>
<line x1="248" y1="142.5" x2="255" y2="142.5" stroke="black"/>
<line x1="266" y1="134.5" x2="288" y2="134.5" stroke="black"/>
<line x1="248" y1="138.5" x2="270" y2="138.5" stroke="black"/>
<line x1="248" y1="158.5" x2="270" y2="158.5" stroke="black"/>
<line x1="248" y1="146.5" x2="288" y2="146.5" stroke="black"/>
<line x1="272" y1="174.5" x2="279" y2="174.5" stroke="black"/>
<line x1="281" y1="174.5" x2="288" y2="174.5" stroke="black"/>
<line x1="275" y1="178.5" x2="282" y2="178.5" stroke="black"/>
<line x1="266" y1="178.5" x2="273" y2="178.5" stroke="black"/>
<line x1="257" y1="178.5" x2="264" y2="178.5" stroke="black"/>
<line x1="248" y1="178.5" x2="255" y2="178.5" stroke="black"/>
<line x1="248" y1="174.5" x2="270" y2="174.5" stroke="black"/>
<line x1="248" y1="182.5" x2="288" y2="182.5" stroke="black"/>
<line x1="248" y1="190.5" x2="288" y2="190.5" stroke="black"/>
<line x1="258" y1="150.5" x2="288" y2="150.5" stroke="black"/>
<line x1="248" y1="154.5" x2="255" y2="154.5" stroke="black"/>
<line x1="257" y1="154.5" x2="264" y2="154.5" stroke="black"/>
<line x1="272" y1="158.5" x2="279" y2="158.5" stroke="black"/>
<line x1="281" y1="158.5" x2="288" y2="158.5" stroke="black"/>
<line x1="275" y1="162.5" x2="282" y2="162.5" stroke="black"/>
<line x1="266" y1="162.5" x2="273" y2="162.5" stroke="black"/>
<line x1="257" y1="162.5" x2="264" y2="162.5" stroke="black"/>
<line x1="248" y1="170.5" x2="255" y2="170.5" stroke="black"/>
<line x1="248" y1="162.5" x2="255" y2="162.5" stroke="black"/>
<line x1="266" y1="154.5" x2="288" y2="154.5" stroke="black"/>
<line x1="248" y1="166.5" x2="288" y2="166.5" stroke="black"/>
<line x1="258" y1="170.5" x2="288" y2="170.5" stroke="black"/>
<line x1="248" y1="170.5" x2="255" y2="170.5" stroke="black"/>
<line x1="248" y1="186.5" x2="255" y2="186.5" stroke="black"/>
<line x1="258" y1="186.5" x2="288" y2="186.5" stroke="black"/>
<rect x="245.5" y="227.5" width="45" height="69" rx="2.5" fill="white" stroke="black"/>
<line x1="248" y1="234.5" x2="255" y2="234.5" stroke="black"/>
<line x1="257" y1="234.5" x2="264" y2="234.5" stroke="black"/>
<line x1="272" y1="238.5" x2="279" y2="238.5" stroke="black"/>
<line x1="281" y1="238.5" x2="288" y2="238.5" stroke="black"/>
<line x1="275" y1="242.5" x2="282" y2="242.5" stroke="black"/>
<line x1="275" y1="242.5" x2="282" y2="242.5" stroke="black"/>
<line x1="287" y1="242.5" x2="288" y2="242.5" stroke="black"/>
<line x1="287" y1="262.5" x2="288" y2="262.5" stroke="black"/>
<line x1="287" y1="278.5" x2="288" y2="278.5" stroke="black"/>
<line x1="266" y1="242.5" x2="273" y2="242.5" stroke="black"/>
<line x1="257" y1="242.5" x2="264" y2="242.5" stroke="black"/>
<line x1="248" y1="250.5" x2="255" y2="250.5" stroke="black"/>
<line x1="248" y1="242.5" x2="255" y2="242.5" stroke="black"/>
<line x1="266" y1="234.5" x2="288" y2="234.5" stroke="black"/>
<line x1="248" y1="238.5" x2="270" y2="238.5" stroke="black"/>
<line x1="248" y1="258.5" x2="270" y2="258.5" stroke="black"/>
<line x1="248" y1="246.5" x2="288" y2="246.5" stroke="black"/>
<line x1="272" y1="274.5" x2="279" y2="274.5" stroke="black"/>
<line x1="281" y1="274.5" x2="288" y2="274.5" stroke="black"/>
<line x1="275" y1="278.5" x2="282" y2="278.5" stroke="black"/>
<line x1="266" y1="278.5" x2="273" y2="278.5" stroke="black"/>
<line x1="257" y1="278.5" x2="264" y2="278.5" stroke="black"/>
<line x1="248" y1="278.5" x2="255" y2="278.5" stroke="black"/>
<line x1="248" y1="274.5" x2="270" y2="274.5" stroke="black"/>
<line x1="248" y1="282.5" x2="288" y2="282.5" stroke="black"/>
<line x1="248" y1="290.5" x2="288" y2="290.5" stroke="black"/>
<line x1="258" y1="250.5" x2="288" y2="250.5" stroke="black"/>
<line x1="248" y1="254.5" x2="255" y2="254.5" stroke="black"/>
<line x1="257" y1="254.5" x2="264" y2="254.5" stroke="black"/>
<line x1="272" y1="258.5" x2="279" y2="258.5" stroke="black"/>
<line x1="281" y1="258.5" x2="288" y2="258.5" stroke="black"/>
<line x1="275" y1="262.5" x2="282" y2="262.5" stroke="black"/>
<line x1="266" y1="262.5" x2="273" y2="262.5" stroke="black"/>
<line x1="257" y1="262.5" x2="264" y2="262.5" stroke="black"/>
<line x1="248" y1="270.5" x2="255" y2="270.5" stroke="black"/>
<line x1="248" y1="262.5" x2="255" y2="262.5" stroke="black"/>
<line x1="266" y1="254.5" x2="288" y2="254.5" stroke="black"/>
<line x1="248" y1="266.5" x2="288" y2="266.5" stroke="black"/>
<line x1="258" y1="270.5" x2="288" y2="270.5" stroke="black"/>
<line x1="248" y1="270.5" x2="255" y2="270.5" stroke="black"/>
<line x1="248" y1="286.5" x2="255" y2="286.5" stroke="black"/>
<line x1="258" y1="286.5" x2="288" y2="286.5" stroke="black"/>
</svg>
